<svg xmlns="http://www.w3.org/2000/svg" xmlns:xlink="http://www.w3.org/1999/xlink" width="500" zoomAndPan="magnify" viewBox="0 0 375 374.999991" height="500" preserveAspectRatio="xMidYMid meet" version="1.0"><defs><g/></defs><rect x="-37.5" width="450" fill="#ffffff" y="-37.499999" height="449.999989" fill-opacity="1"/><rect x="-37.5" width="450" fill="#ffffff" y="-37.499999" height="449.999989" fill-opacity="1"/><g fill="#005143" fill-opacity="1"><g transform="translate(-0.396077, 254.949871)"><g><path d="M 155.984375 -127.15625 L 77.046875 0 L 39 0 L 10.875 -127.15625 L 47.265625 -127.15625 L 65.703125 -40.421875 L 119.125 -127.15625 Z M 155.984375 -127.15625 "/></g></g></g><g fill="#005143" fill-opacity="1"><g transform="translate(127.467665, 254.949871)"><g><path d="M 189.3125 -129.046875 C 203.175781 -129.046875 214.203125 -125.300781 222.390625 -117.8125 C 230.585938 -110.332031 234.6875 -99.738281 234.6875 -86.03125 C 234.6875 -80.988281 234.132812 -75.789062 233.03125 -70.4375 L 219.09375 0 L 182.21875 0 L 195.6875 -67.828125 C 196.320312 -70.984375 196.640625 -74.210938 196.640625 -77.515625 C 196.640625 -83.972656 194.941406 -88.859375 191.546875 -92.171875 C 188.160156 -95.484375 183.160156 -97.140625 176.546875 -97.140625 C 158.742188 -97.140625 147.632812 -86.503906 143.21875 -65.234375 L 130.21875 0 L 93.359375 0 L 106.828125 -67.828125 C 107.453125 -70.984375 107.765625 -74.132812 107.765625 -77.28125 C 107.765625 -83.738281 106.070312 -88.660156 102.6875 -92.046875 C 99.300781 -95.441406 94.300781 -97.140625 87.6875 -97.140625 C 69.882812 -97.140625 58.695312 -86.347656 54.125 -64.765625 L 41.359375 0 L 4.484375 0 L 29.78125 -127.15625 L 64.765625 -127.15625 L 61.921875 -113.921875 C 72.953125 -124.003906 86.265625 -129.046875 101.859375 -129.046875 C 110.679688 -129.046875 118.519531 -127.269531 125.375 -123.71875 C 132.226562 -120.175781 137.390625 -115.019531 140.859375 -108.25 C 147.003906 -115.019531 154.171875 -120.175781 162.359375 -123.71875 C 170.554688 -127.269531 179.539062 -129.046875 189.3125 -129.046875 Z M 189.3125 -129.046875 "/></g></g></g><g fill="#005143" fill-opacity="1"><g transform="translate(228.394691, 301.739522)"><g><path d="M 20.375 -14.25 C 21.71875 -13.789062 22.710938 -13.066406 23.359375 -12.078125 C 24.015625 -11.085938 24.34375 -9.890625 24.34375 -8.484375 C 24.34375 -7.160156 24.0625 -6 23.5 -5 C 22.9375 -4.007812 22.203125 -3.175781 21.296875 -2.5 C 20.398438 -1.820312 19.414062 -1.289062 18.34375 -0.90625 C 17.269531 -0.53125 16.238281 -0.28125 15.25 -0.15625 C 14.5625 -0.0703125 13.941406 -0.0234375 13.390625 -0.015625 C 12.847656 -0.00390625 12.15625 0 11.3125 0 L 0.796875 0 L 5.46875 -26.375 L 16.28125 -26.375 C 16.988281 -26.375 17.5625 -26.363281 18 -26.34375 C 18.4375 -26.332031 18.984375 -26.289062 19.640625 -26.21875 C 21.523438 -25.988281 22.945312 -25.335938 23.90625 -24.265625 C 24.863281 -23.191406 25.34375 -21.929688 25.34375 -20.484375 C 25.34375 -19.003906 24.925781 -17.722656 24.09375 -16.640625 C 23.269531 -15.554688 22.03125 -14.757812 20.375 -14.25 Z M 11.390625 -21.015625 L 10.515625 -15.96875 L 13.609375 -15.96875 C 14.210938 -15.96875 14.785156 -16.007812 15.328125 -16.09375 C 16.085938 -16.21875 16.707031 -16.492188 17.1875 -16.921875 C 17.675781 -17.359375 17.921875 -18.050781 17.921875 -19 C 17.921875 -20.113281 17.347656 -20.75 16.203125 -20.90625 C 15.722656 -20.976562 15.148438 -21.015625 14.484375 -21.015625 Z M 14.0625 -5.390625 C 14.75 -5.441406 15.421875 -5.742188 16.078125 -6.296875 C 16.742188 -6.859375 17.078125 -7.640625 17.078125 -8.640625 C 17.078125 -9.378906 16.859375 -9.9375 16.421875 -10.3125 C 15.992188 -10.695312 15.472656 -10.914062 14.859375 -10.96875 C 14.609375 -10.988281 14.335938 -11 14.046875 -11 C 13.753906 -11 13.453125 -11 13.140625 -11 L 9.625 -11 L 8.640625 -5.34375 L 12.34375 -5.34375 C 12.644531 -5.34375 12.941406 -5.34375 13.234375 -5.34375 C 13.535156 -5.34375 13.8125 -5.359375 14.0625 -5.390625 Z M 14.0625 -5.390625 "/></g></g></g><g fill="#005143" fill-opacity="1"><g transform="translate(252.884834, 301.739522)"><g><path d="M 22.046875 -5.8125 L 21.015625 0 L 0.796875 0 L 5.46875 -26.375 L 12.34375 -26.375 L 8.71875 -5.8125 Z M 22.046875 -5.8125 "/></g></g></g><g fill="#005143" fill-opacity="1"><g transform="translate(275.235373, 301.739522)"><g><path d="M 17.84375 -26.90625 C 20.550781 -26.90625 22.835938 -26.40625 24.703125 -25.40625 C 26.578125 -24.414062 28.003906 -23.0625 28.984375 -21.34375 C 29.960938 -19.625 30.453125 -17.671875 30.453125 -15.484375 C 30.453125 -13.003906 30.054688 -10.769531 29.265625 -8.78125 C 28.484375 -6.800781 27.390625 -5.125 25.984375 -3.75 C 24.585938 -2.375 22.957031 -1.316406 21.09375 -0.578125 C 19.238281 0.160156 17.238281 0.53125 15.09375 0.53125 C 12.414062 0.53125 10.132812 0.0351562 8.25 -0.953125 C 6.363281 -1.953125 4.929688 -3.316406 3.953125 -5.046875 C 2.972656 -6.773438 2.484375 -8.722656 2.484375 -10.890625 C 2.484375 -13.390625 2.878906 -15.625 3.671875 -17.59375 C 4.460938 -19.570312 5.554688 -21.25 6.953125 -22.625 C 8.359375 -24 9.988281 -25.054688 11.84375 -25.796875 C 13.707031 -26.535156 15.707031 -26.90625 17.84375 -26.90625 Z M 15.328125 -4.515625 C 16.648438 -4.515625 17.804688 -4.835938 18.796875 -5.484375 C 19.796875 -6.128906 20.617188 -6.976562 21.265625 -8.03125 C 21.921875 -9.09375 22.40625 -10.257812 22.71875 -11.53125 C 23.039062 -12.8125 23.203125 -14.0625 23.203125 -15.28125 C 23.203125 -17.21875 22.726562 -18.796875 21.78125 -20.015625 C 20.84375 -21.242188 19.457031 -21.859375 17.625 -21.859375 C 16.289062 -21.859375 15.128906 -21.53125 14.140625 -20.875 C 13.148438 -20.226562 12.328125 -19.375 11.671875 -18.3125 C 11.023438 -17.257812 10.539062 -16.097656 10.21875 -14.828125 C 9.90625 -13.554688 9.75 -12.304688 9.75 -11.078125 C 9.75 -9.140625 10.21875 -7.5625 11.15625 -6.34375 C 12.101562 -5.125 13.492188 -4.515625 15.328125 -4.515625 Z M 15.328125 -4.515625 "/></g></g></g><g fill="#005143" fill-opacity="1"><g transform="translate(304.921655, 301.739522)"><g><path d="M 18.578125 -26.90625 C 21.097656 -26.90625 23.132812 -26.492188 24.6875 -25.671875 C 26.238281 -24.859375 27.359375 -23.757812 28.046875 -22.375 C 28.734375 -20.988281 29.015625 -19.425781 28.890625 -17.6875 L 28.859375 -17.3125 L 21.96875 -17.3125 L 21.96875 -17.6875 C 21.894531 -20.46875 20.445312 -21.859375 17.625 -21.859375 C 16.269531 -21.859375 14.988281 -21.453125 13.78125 -20.640625 C 12.570312 -19.828125 11.582031 -18.609375 10.8125 -16.984375 C 10.050781 -15.367188 9.671875 -13.335938 9.671875 -10.890625 C 9.671875 -9.335938 9.882812 -8.09375 10.3125 -7.15625 C 10.75 -6.226562 11.335938 -5.554688 12.078125 -5.140625 C 12.816406 -4.722656 13.628906 -4.515625 14.515625 -4.515625 C 15.867188 -4.515625 17.046875 -4.847656 18.046875 -5.515625 C 19.054688 -6.191406 19.921875 -7.257812 20.640625 -8.71875 L 15.515625 -8.71875 L 16.46875 -14.0625 L 28.09375 -14.0625 L 25.609375 0 L 20.25 0 L 20.328125 -4.09375 L 18.65625 -1.140625 C 17.8125 -0.503906 16.890625 -0.0664062 15.890625 0.171875 C 14.898438 0.410156 13.707031 0.53125 12.3125 0.53125 C 9.300781 0.53125 6.890625 -0.367188 5.078125 -2.171875 C 3.273438 -3.984375 2.375 -6.625 2.375 -10.09375 C 2.375 -12.84375 2.820312 -15.257812 3.71875 -17.34375 C 4.625 -19.4375 5.847656 -21.195312 7.390625 -22.625 C 8.929688 -24.050781 10.664062 -25.117188 12.59375 -25.828125 C 14.519531 -26.546875 16.515625 -26.90625 18.578125 -26.90625 Z M 18.578125 -26.90625 "/></g></g></g></svg>